<svg width="28" height="27" viewBox="0 0 28 27" fill="none" xmlns="http://www.w3.org/2000/svg">
<path d="M16 2C16 0.895431 16.8954 0 18 0H26C27.1046 0 28 0.895431 28 2V10C28 11.1046 27.1046 12 26 12H18C16.8954 12 16 11.1046 16 10V2Z" fill="#FF0000"/>
<path d="M16 17C16 15.8954 16.8954 15 18 15H26C27.1046 15 28 15.8954 28 17V25C28 26.1046 27.1046 27 26 27H18C16.8954 27 16 26.1046 16 25V17Z" fill="#FF0000"/>
<path d="M0 17C0 15.8954 0.895431 15 2 15H10C11.1046 15 12 15.8954 12 17V25C12 26.1046 11.1046 27 10 27H2C0.895431 27 0 26.1046 0 25V17Z" fill="#FF0000"/>
<path d="M0 2C0 0.895431 0.895431 0 2 0H10C11.1046 0 12 0.895431 12 2V10C12 11.1046 11.1046 12 10 12H2C0.895431 12 0 11.1046 0 10V2Z" fill="#FF0000"/>
</svg>
