<svg width="21" height="20" viewBox="0 0 21 20" fill="none" xmlns="http://www.w3.org/2000/svg">
<path d="M19.4809 10.8091C19.3236 12.5113 18.6848 14.1335 17.6392 15.4859C16.5936 16.8383 15.1844 17.8649 13.5766 18.4456C11.9688 19.0264 10.2289 19.1372 8.56042 18.7652C6.89194 18.3931 5.36391 17.5536 4.15514 16.3449C2.94638 15.1361 2.10686 13.6081 1.73483 11.9396C1.36279 10.2711 1.47364 8.53117 2.05438 6.92339C2.63512 5.3156 3.66175 3.90645 5.01413 2.86084C6.36651 1.81523 7.98872 1.17639 9.69092 1.01909C8.69433 2.36736 8.21477 4.02854 8.33945 5.7005C8.46413 7.37247 9.18478 8.94415 10.3703 10.1297C11.5559 11.3152 13.1275 12.0359 14.7995 12.1606C16.4715 12.2852 18.1327 11.8057 19.4809 10.8091V10.8091Z" stroke="black" stroke-width="2" stroke-linecap="round" stroke-linejoin="round"/>
</svg>
