<svg width="24" height="27" viewBox="0 0 24 27" fill="none" xmlns="http://www.w3.org/2000/svg">
<path d="M3 6.75H5H21" stroke="white" stroke-width="2" stroke-linecap="round" stroke-linejoin="round"/>
<path d="M8 6.75V4.5C8 3.90326 8.21071 3.33097 8.58579 2.90901C8.96086 2.48705 9.46957 2.25 10 2.25H14C14.5304 2.25 15.0391 2.48705 15.4142 2.90901C15.7893 3.33097 16 3.90326 16 4.5V6.75M19 6.75V22.5C19 23.0967 18.7893 23.669 18.4142 24.091C18.0391 24.5129 17.5304 24.75 17 24.75H7C6.46957 24.75 5.96086 24.5129 5.58579 24.091C5.21071 23.669 5 23.0967 5 22.5V6.75H19Z" stroke="white" stroke-width="2" stroke-linecap="round" stroke-linejoin="round"/>
<path d="M10 12.375V19.125" stroke="white" stroke-width="2" stroke-linecap="round" stroke-linejoin="round"/>
<path d="M14 12.375V19.125" stroke="white" stroke-width="2" stroke-linecap="round" stroke-linejoin="round"/>
</svg>
